<svg width="16" height="16" viewBox="0 0 16 16" fill="none" xmlns="http://www.w3.org/2000/svg">
<path d="M9.66675 12C9.94453 12 10.1807 11.9029 10.3754 11.7087C10.5701 11.5144 10.6672 11.2782 10.6667 11C10.6667 10.7222 10.5696 10.4862 10.3754 10.292C10.1812 10.0978 9.94497 10.0004 9.66675 10C9.38897 10 9.15297 10.0973 8.95875 10.292C8.76453 10.4867 8.66719 10.7227 8.66675 11C8.66675 11.2778 8.76408 11.514 8.95875 11.7087C9.15341 11.9033 9.38941 12.0004 9.66675 12ZM6.30008 11.9667L10.6334 7.63333L9.70008 6.7L5.36675 11.0333L6.30008 11.9667ZM6.33341 8.66666C6.61119 8.66666 6.84741 8.56955 7.04208 8.37533C7.23675 8.18111 7.33386 7.94488 7.33341 7.66666C7.33341 7.38888 7.2363 7.15288 7.04208 6.95866C6.84786 6.76444 6.61164 6.66711 6.33341 6.66666C6.05564 6.66666 5.81964 6.76399 5.62541 6.95866C5.43119 7.15333 5.33386 7.38933 5.33341 7.66666C5.33341 7.94444 5.43075 8.18066 5.62541 8.37533C5.82008 8.56999 6.05608 8.66711 6.33341 8.66666ZM8.00008 14.6667C6.47786 14.6667 5.20853 14.1444 4.19208 13.1C3.17564 12.0556 2.66719 10.7556 2.66675 9.2C2.66675 8.08888 3.10853 6.88066 3.99208 5.57533C4.87564 4.26999 6.21164 2.85599 8.00008 1.33333C9.78897 2.85555 11.1252 4.26955 12.0087 5.57533C12.8923 6.88111 13.3339 8.08933 13.3334 9.2C13.3334 10.7556 12.8252 12.0556 11.8087 13.1C10.7923 14.1444 9.52275 14.6667 8.00008 14.6667ZM8.00008 13.3333C9.15564 13.3333 10.1112 12.9416 10.8667 12.158C11.6223 11.3744 12.0001 10.3884 12.0001 9.2C12.0001 8.38888 11.6639 7.47222 10.9914 6.45C10.319 5.42777 9.32186 4.31111 8.00008 3.1C6.67786 4.31111 5.68075 5.42777 5.00875 6.45C4.33675 7.47222 4.00053 8.38888 4.00008 9.2C4.00008 10.3889 4.37786 11.3751 5.13341 12.1587C5.88897 12.9422 6.84453 13.3338 8.00008 13.3333Z" fill="#1D1B20"/>
</svg>
