<svg width="16" height="16" viewBox="0 0 16 16" fill="none" xmlns="http://www.w3.org/2000/svg">
<path d="M13.7953 11.5533C14.0337 10.6643 14.0643 9.73242 13.8848 8.82968C13.7054 7.92695 13.3206 7.07761 12.7604 6.34737C12.2001 5.61713 11.4794 5.02557 10.6539 4.61845C9.82846 4.21134 8.9204 3.9996 8 3.9996C7.0796 3.9996 6.17154 4.21134 5.34608 4.61845C4.52061 5.02557 3.79987 5.61713 3.23962 6.34737C2.67937 7.07761 2.29463 7.92695 2.11516 8.82968C1.9357 9.73242 1.96632 10.6643 2.20467 11.5533" stroke="#1D1B20" stroke-width="1.33333" stroke-linecap="round"/>
<path d="M8.51062 10.388C8.83528 10.8613 8.60662 11.5827 7.99995 11.9993C7.39328 12.4167 6.63795 12.3713 6.31328 11.8987C5.96662 11.3947 4.77062 8.56067 4.04462 6.80734C3.90795 6.47734 4.31128 6.2 4.57128 6.446C5.94728 7.75267 8.16462 9.884 8.51062 10.388Z" stroke="#1D1B20" stroke-width="1.33333"/>
<path d="M7.99992 4V5.33333M3.75726 5.75733L4.69992 6.7M12.2426 5.75733L11.2999 6.7M13.7953 11.5533L12.5079 11.208M2.20459 11.5533L3.49192 11.208" stroke="#1D1B20" stroke-width="1.33333" stroke-linecap="round"/>
</svg>
