<svg width="16" height="16" viewBox="0 0 16 16" fill="none" xmlns="http://www.w3.org/2000/svg">
<path d="M8 2.5C7.60218 2.5 7.22065 2.65804 6.93934 2.93934C6.65804 3.22064 6.5 3.60218 6.5 4V8.9875L6.3335 9.1365C5.95607 9.47402 5.69003 9.91819 5.57057 10.4102C5.45112 10.9023 5.48388 11.419 5.66453 11.892C5.84518 12.365 6.1652 12.772 6.58224 13.0591C6.99927 13.3463 7.49367 13.5 8 13.5C8.50633 13.5 9.00073 13.3463 9.41777 13.0591C9.83481 12.772 10.1548 12.365 10.3355 11.892C10.5161 11.419 10.5489 10.9023 10.4294 10.4102C10.31 9.91819 10.0439 9.47402 9.6665 9.1365L9.5 8.9875V4C9.5 3.60218 9.34197 3.22064 9.06066 2.93934C8.77936 2.65804 8.39783 2.5 8 2.5ZM5.5 4C5.5 3.33696 5.76339 2.70107 6.23223 2.23223C6.70108 1.76339 7.33696 1.5 8 1.5C8.66304 1.5 9.29893 1.76339 9.76777 2.23223C10.2366 2.70107 10.5 3.33696 10.5 4V8.5505C10.9823 9.04278 11.3086 9.66651 11.4379 10.3435C11.5672 11.0204 11.4937 11.7205 11.2267 12.3559C10.9597 12.9912 10.5111 13.5337 9.93707 13.9151C9.36305 14.2965 8.68919 14.5 8 14.5C7.31081 14.5 6.63695 14.2965 6.06294 13.9151C5.48892 13.5337 5.04029 12.9912 4.7733 12.3559C4.50631 11.7205 4.43285 11.0204 4.56213 10.3435C4.69141 9.66651 5.01767 9.04278 5.5 8.5505V4ZM7.5 6C7.5 5.86739 7.55268 5.74021 7.64645 5.64645C7.74022 5.55268 7.86739 5.5 8 5.5C8.13261 5.5 8.25979 5.55268 8.35356 5.64645C8.44732 5.74021 8.5 5.86739 8.5 6V9.585C8.83375 9.70295 9.11505 9.9351 9.29418 10.2404C9.47331 10.5457 9.53874 10.9045 9.47891 11.2534C9.41907 11.6023 9.23782 11.9188 8.96719 12.1469C8.69656 12.3751 8.35398 12.5002 8 12.5002C7.64602 12.5002 7.30345 12.3751 7.03282 12.1469C6.76219 11.9188 6.58093 11.6023 6.5211 11.2534C6.46126 10.9045 6.52669 10.5457 6.70582 10.2404C6.88495 9.9351 7.16626 9.70295 7.5 9.585V6Z" fill="#1D1B20"/>
</svg>
